<svg width="SIZE" height="SIZE" viewBox="0 0 1388.98 1388.98" version="1.1" xmlns="http://www.w3.org/2000/svg" xmlns:xlink="http://www.w3.org/1999/xlink">
<g><g><defs><rect id="SVGID_1_" x="663.89" y="1093.34" width="61.19" height="187.33"/></defs><clipPath id="cp1"><use xlink:href="#SVGID_1_" style="overflow:visible;"/></clipPath><rect x="669.07" y="1025.56" style="clip-path:url(#cp1);fill:currentColor;" width="50.83" height="445.27"/></g><path style="fill:none;" d="M694.49,56.69c352.24,0,637.8,285.55,637.8,637.8s-285.55,637.8-637.8,637.8s-637.8-285.55-637.8-637.8S342.24,56.69,694.49,56.69z M108.66,694.49c0,323.54,262.28,585.83,585.83,585.83s585.83-262.28,585.83-585.83s-262.28-585.83-585.83-585.83S108.66,370.94,108.66,694.49z"/><path style="fill:currentColor;" d="M1332.28,694.49c0,352.24-285.55,637.8-637.8,637.8s-637.8-285.55-637.8-637.8s285.55-637.8,637.8-637.8S1332.28,342.24,1332.28,694.49z M694.49,108.66c-323.54,0-585.83,262.28-585.83,585.83s262.28,585.83,585.83,585.83s585.83-262.28,585.83-585.83S1018.03,108.66,694.49,108.66z"/><path style="fill:currentColor;" d="M884.47,434.38c41.01,71.05,64.48,153.37,64.48,241.03s-23.47,169.98-64.48,241.03c-42.46,73.55-103.65,134.84-177.02,177.28l-12.84,3.19l-13.08-3.19c-73.37-42.44-134.56-103.72-177.02-177.28c-41.01-71.05-64.48-153.37-64.48-241.03s23.47-169.98,64.48-241.03c42.46-73.55,103.65-134.84,177.02-177.28l12.96-7.5l12.96,7.5C780.81,299.54,842.01,360.83,884.47,434.38 M897.11,675.41c0-78.55-20.89-152.07-57.39-215.31c-35.32-61.19-85.32-112.93-145.23-150.44c-59.9,37.51-109.91,89.24-145.23,150.44c-36.5,63.24-57.39,136.76-57.39,215.31s20.89,152.07,57.39,215.31c35.32,61.19,85.32,112.93,145.23,150.44c59.9-37.51,109.91-89.24,145.23-150.44C876.22,827.48,897.11,753.95,897.11,675.41z"/><g><defs><path id="SVGID_2_" d="M821.02,455.52c-59.74,42.13-109.56,100.06-142.45,171.21c-32.93,71.24-44.81,146.74-38.21,219.52c6.39,70.46,30.11,138.48,68.81,197.71c314.48-34.13,349.64-209.29,332.88-392.12c-4.32-47.11-12.03-95.46-19.49-142.19c-7.13-44.71-14.04-87.96-17.71-128.3C938.89,391.49,875.82,416.87,821.02,455.52"/></defs><clipPath id="cp2"><use xlink:href="#SVGID_2_" style="overflow:visible;"/></clipPath><rect x="630.01" y="278.8" style="clip-path:url(#cp2);fill:currentColor;" width="471.22" height="821.14"/></g><g><defs><path id="SVGID_3_" d="M567.96,455.52c59.74,42.13,109.56,100.06,142.45,171.21c32.93,71.24,44.81,146.74,38.21,219.52c-6.39,70.46-30.11,138.48-68.81,197.71c-314.48-34.13-349.64-209.29-332.88-392.12c4.32-47.11,12.03-95.46,19.49-142.19c7.13-44.71,14.04-87.96,17.71-128.3C450.09,391.49,513.15,416.87,567.96,455.52"/></defs><clipPath id="cp3"><use xlink:href="#SVGID_3_" style="overflow:visible;"/></clipPath><rect x="287.75" y="278.8" style="clip-path:url(#cp3);fill:currentColor;" width="471.22" height="821.14"/></g></g>
</svg>
